<svg width="800" height="800" viewBox="0 0 800 800" fill="none" xmlns="http://www.w3.org/2000/svg">
<g clip-path="url(#clip0_420_1756)">
<path d="M794.3 401.075L419 7.97499C414.275 3.04999 407.775 0.299988 400.975 0.299988C394.175 0.299988 387.65 3.07499 382.925 7.97499L5.70003 401.075C-3.87497 411.025 -3.52497 426.85 6.42503 436.425C16.4 445.975 32.2 445.7 41.775 435.7L75.375 400.675V774.75C75.375 788.55 86.575 799.75 100.375 799.75H275.025C288.8 799.75 299.975 788.625 300.025 774.825L300.8 525.1H500.025V774.75C500.025 788.55 511.225 799.75 525.025 799.75H699.6C713.4 799.75 724.6 788.55 724.6 774.75V400.55L758.175 435.725C763.1 440.825 769.65 443.425 776.225 443.425C782.45 443.425 788.7 441.125 793.525 436.45C803.475 426.9 803.8 411.075 794.25 401.125L794.3 401.075ZM674.625 355.325V749.725H550.05V500.075C550.05 486.275 538.85 475.075 525.05 475.075H275.925C262.15 475.075 250.975 486.2 250.925 500L250.15 749.725H125.425V355.3C125.425 353.25 125.1 351.25 124.625 349.325L401 61.325L675.55 349C675.025 351.025 674.65 353.125 674.65 355.3L674.625 355.325Z" fill="black"/>
</g>
<defs>
<clipPath id="clip0_420_1756">
<rect width="800" height="800" fill="white"/>
</clipPath>
</defs>
</svg>
